<svg xmlns="http://www.w3.org/2000/svg" width="3839.784" height="1572.667" viewBox="0 0 1015.943 416.101"><defs><linearGradient id="a"><stop offset="0" stop-color="#ff8a65"/><stop offset="1" stop-color="#ffccbc"/></linearGradient><linearGradient id="b"><stop offset="0" stop-color="#ffab91"/><stop offset="1" stop-color="#ffccbc"/></linearGradient><linearGradient id="c"><stop offset="0" stop-color="#ffab91"/><stop offset=".417" stop-color="#ffb8a2"/><stop offset="1" stop-color="#ff9b7c"/></linearGradient><filter id="d" x="-.008" width="1.016" y="-.024" height="1.048" color-interpolation-filters="sRGB"><feGaussianBlur stdDeviation="3.347"/></filter></defs><path d="M622.387-280.69l-40.158 17.262a4.608 4.608 0 0 1-2.01.371l-19.086-.783-1.947 2.977a4.608 4.608 0 0 1-4.288 2.066l-5.691-.535a4.608 4.608 0 0 1-2.728-1.234l-3.99-3.762-39.042 14.025-10.263 6.336a4.608 4.608 0 0 1-2.131.678l-15.63.98-23.058 18.338a4.608 4.608 0 0 1-2.867 1.002h-2.945l-13.914 17.338a4.608 4.608 0 0 1-1.922 1.41l-6.875 2.678-1.514 22.746 4.594 1.301a4.608 4.608 0 0 1 3.267 5.312l-1.246 6.413a4.608 4.608 0 0 1-5.732 3.568l-11.186-3.041-9.076 2.697-2.537 2.393 9.037-.059a4.608 4.608 0 0 1 3.852 2.033l2.4 3.565a4.608 4.608 0 0 1 .74 3.178l4.891-4.192a4.608 4.608 0 0 1 1.807-.953l16.986-4.543a4.608 4.608 0 0 1 1.756-.121l9.41 1.162 3.73-19.63a4.608 4.608 0 0 1 4.262-3.74l21.705-1.25 6.485-5.36a4.608 4.608 0 0 1 3.613-1.006l19.94 2.963 8.595-12.35a4.608 4.608 0 0 1 3.639-1.975l7.707-.238 1.146-6.709a4.608 4.608 0 0 1 1.89-2.994l25.54-17.957 3.568-7.752a4.608 4.608 0 0 1 4.336-2.68l92.19 3.024a4.608 4.608 0 0 1 2.277.69l16.162 10.015a4.608 4.608 0 0 1 2.18 3.963l-.125 12.343a4.608 4.608 0 0 1-4.262 4.547l-37.951 2.858 19.627 16.209 38.57-.301a4.608 4.608 0 0 1 3.737 1.861l6.894 9.297 6.2.373 13.84-5.931a4.608 4.608 0 0 1 5.864 2.04l1.891 3.489 39.238-.274 1.492-5.658a4.608 4.608 0 0 1 3.76-3.38l9.494-1.45a4.608 4.608 0 0 1 5.063 3.086l3.963 11.777a4.608 4.608 0 0 1-.367 3.756l-1.536 2.684 15.97 13.22 6.353-.245a4.608 4.608 0 0 1 3.35 1.261l9.69 9.197 32.913 4.77a4.608 4.608 0 0 1 .777.184l39.053 12.822 43.682-7.727a4.608 4.608 0 0 1 4.37 1.621l17.255 21.112a4.608 4.608 0 0 1 1.011 2.414l3.98 36.304 40.063 34.153 4.13.7 4.802-3.743a4.608 4.608 0 0 1 3.445-.932l41.34 5.545 10.461-4.03a4.608 4.608 0 0 1 4.137.417l17.697 11.31a4.608 4.608 0 0 1 2.039 2.985l4.18 21.021a4.608 4.608 0 0 1-.485 3.121l-7.558 13.72a4.608 4.608 0 0 1-2.8 2.216l-18.696 5.205-28.012 27.31-.106 1.05 29.88-1.33 2.548-5.413a4.608 4.608 0 0 1 4.66-2.619l17.432 1.87a4.608 4.608 0 0 1 3.064 1.653l2.586 3.14 43.188-5.016 6.46-4.29a4.608 4.608 0 0 1 2.409-.765l34.861-1.069a4.608 4.608 0 0 1 2.303.538l6.139 3.261 9.185-.226 14.586-3.283a4.608 4.608 0 0 1 3.403.556l16.085 9.766 21.506.224 11.08-17.593a4.608 4.608 0 0 1 4.733-2.077l8.715 1.604a4.608 4.608 0 0 1 3.715 5.266l-1.895 11.744 2.174 1.261 9.369-12.417a4.608 4.608 0 0 1 3.174-1.805l60.01-6.611 3.93-6.409-1.737-5.26-19.037-1.224a4.608 4.608 0 0 1-2.326-.809L1334.79.77a4.608 4.608 0 0 1-.582-.477l-22.379-21.635-27.77-11.008h-21.93l-3.13 5.645a4.608 4.608 0 0 1-4.307 2.363l-19.209-1.158a4.608 4.608 0 0 1-2.12-.666l-9.784-5.967a4.608 4.608 0 0 1-2.203-4.166l.445-8.818a4.608 4.608 0 0 1 3.12-4.131l12.04-4.092.528-7.433-8.16-8.301-18.698 3.935a4.608 4.608 0 0 1-2.468-.16l-21.432-7.482a4.608 4.608 0 0 1-2.895-3.028l-1.869-6.244-15.861-3.117-.307 3.143a4.608 4.608 0 0 1-4.345 4.154l-13.608.713a4.608 4.608 0 0 1-4.848-4.692l.196-9.949-8.606-2.127-5.472 3.356a4.608 4.608 0 0 1-3.217.607l-6.492-1.158a4.608 4.608 0 0 1-3.778-4.988l.67-6.754-12.066-11.461-5.21 6.217a4.608 4.608 0 0 1-6.126.847l-30.06-20.486a4.608 4.608 0 0 1-1.971-4.426l.392-2.885-18.207-3.459a4.608 4.608 0 0 1-1.943-.869l-37.916-29.056-56.31-29.073-55.313-1.046a4.608 4.608 0 0 1-2.838-1.047l-27.748-22.803a4.608 4.608 0 0 1-1.367-1.887l-3.739-9.59-23.466-9.931a4.608 4.608 0 0 1-2.434-2.412l-2.95-6.81-33.777-1.644a4.608 4.608 0 0 1-2.06-.601l-25.441-14.535h-20.68l-17.38 8.281a4.608 4.608 0 0 1-4.222-.133l-11.207-6.234a4.608 4.608 0 0 1-2.365-4.164l.15-5.031-3.703 1.412-5.12 5.752a4.608 4.608 0 0 1-2.886 1.51l-13.162 1.603a4.608 4.608 0 0 1-4.927-3.12l-1.914-5.747-5.961-.65-9.995 2.788a4.608 4.608 0 0 1-4.177-.89l-3.762-3.116-10.281.604a4.608 4.608 0 0 1-3.696-1.52l-1.474-1.638-10.795 2.02a4.608 4.608 0 0 1-3.711-.919zM557.47-152.378c-1.975 3.791-1.813 3.612-3.237 4.34-6.813 2.824-11.053 7.407-10.386 6.523 4.744 7.535-2.996 8.137 5.144 9.989 3.334.826 8.28 9.386 6.26 7.049a4.608 4.608 0 0 1-1.645 6.609l-6.994 3.78a4.608 4.608 0 0 1-4.347.017l-1.971-1.045.871 1.572 8.781.44a4.608 4.608 0 0 1 2.55.925l5.148 3.893 7.865-5.195a4.608 4.608 0 0 1 1.611-.67l18.668-3.836 1.283-1.506-2.865-5.357a4.608 4.608 0 0 1-.252-3.793l1.74-4.635-8.275-7.537a4.608 4.608 0 0 1-1.494-3.07l-.254-3.477h-2.711a4.608 4.608 0 0 1-1.484-.246z" fill="#1c2224" filter="url(#d)" transform="translate(-365.818 358.896)"/><path d="M257.279 67.017l-42.687 18.35-21.7-.89-3.38 5.165-5.692-.534-6.047-5.701-42.154 15.143-10.673 6.59-17.075 1.07-24.19 19.24h-5.158l-15.296 19.062-9.605 3.741-1.957 29.395 8.183 2.316-1.246 6.413-12.45-3.385-11.384 3.385-9.071 8.551-14.941 4.989-9.605-2.584L0 206.093l17.96.592 11.65-9.175 14.051-.088 2.401 3.563-5.424 9.353 7.38-.445 10.495-8.997 16.986-4.543 13.696 1.692 4.536-23.872 23.212-1.335 7.648-6.325 22.767 3.385 10.227-14.698 11.472-.356 1.78-10.421 26.555-18.671 4.087-8.881 92.19 3.023 16.162 10.015-.124 12.345-49.365 3.716 29.744 24.564 40.247-.314 8.175 11.022 9.433.567 14.841-6.362 3.207 5.92 45.529-.314 2.39-9.07 9.496-1.449 3.961 11.778-3.459 6.047 20.312 16.817 8.113-.315 10.753 10.204 34.362 4.982 40.153 13.183 44.822-7.927 17.253 21.11 4.18 38.124 42.422 36.164 7.381 1.247 6.403-4.988 42.51 5.701 11.562-4.454 17.698 11.313 4.18 21.021-7.56 13.718-19.832 5.523-30.06 29.305-.8 8.016 37.975-1.692 3.735-7.927 17.431 1.87 4.18 5.078 46.779-5.434 7.381-4.899 34.862-1.07 7.204 3.831 10.85-.267 15.029-3.385 17.165 10.422 25.346.267 12.45-19.775 8.716 1.604-2.402 14.875 8.45 4.9 11.827-15.678 62.254-6.859 6.225-10.154-3.38-10.243-22.143-1.426-16.098-11.134-23.034-22.269-29.437-11.668H893.6l-4.447 8.016-19.21-1.158-9.783-5.968.445-8.818 14.941-5.077.89-12.56-11.384-11.58-21.166 4.454-21.433-7.482-2.668-8.908-23.567-4.631-.801 8.195-13.607.712.267-13.629-14.051-3.473-7.115 4.364-6.492-1.158.89-8.996-17.253-16.39-8.36 9.976-30.06-20.487.979-7.215-22.5-4.275-38.242-29.306-57.629-29.75-56.384-1.07-27.747-22.803-4.446-11.401-25.258-10.689-4.09-9.442-36.641-1.781-26.502-15.143H378.23l-18.32 8.729-11.206-6.235.354-11.936-11.206 4.276-5.87 6.591-13.162 1.604-2.845-8.552-9.783-1.069-10.85 3.029-5.158-4.276-12.095.713-3.202-3.563-13.34 2.494zm-67.9 127.99l-3.023 5.86-10.206 5.102-3.213 4.914 4.914 14.174 4.347.945 3.402 5.102-6.993 3.78-15.686-8.315 9.638 17.387 11.34.567 7.748 5.858 10.584-6.992 20.221-4.158 4.347-5.103-4.347-8.126 2.835-7.56-10.583-9.638-.567-7.748h-6.993z" fill="#647b89"/><path d="M99.436 112.698c0 30.575-35.533 55.634-35.533 55.634s-35.532-25.059-35.532-55.634c0-19.624 15.908-35.533 35.532-35.533 19.625 0 35.533 15.91 35.533 35.533z" style="marker:none" fill="#c0dce3" stroke-width="1.489"/><g transform="matrix(.533 0 0 .533 37.254 86.049)" stroke-width=".496"><path d="M50 0A50 50 0 0 0 0 50a50 50 0 0 0 19.756 39.738H80.28A50 50 0 0 0 100 50 50 50 0 0 0 50 0z" style="marker:none" fill="#91a1ab"/><rect ry="17.205" y="25.237" x="32.599" height="44.411" width="34.411" style="marker:none" fill="#fdcc9b"/><circle r="3.589" cy="46.897" cx="42.383" style="marker:none" fill="#1a1a1a"/><circle style="marker:none" cx="57.617" cy="46.897" r="3.589" fill="#1a1a1a"/><path d="M21.41 20.478s.367 21.073 13.307 21.073c11.084 0 23.395-8.382 23.395-8.382l3.177 3.803 2.23-3.128c2.929 3.393 3.491 8.807 3.491 18.635 6.615-8.894 7.289-18.732 3.244-28.135L67 26.263s-6.627-8.447-14.957-10.43c-4.765-1.134-13.786-.462-16.495 1.31 3.75 5.192-.731 7.799-5.165 7.172-3.456-.489-8.973-3.837-8.973-3.837z" style="marker:none"/><path d="M40.01 73.145a20.647 20.647 0 0 0-20.287 16.568A50 50 0 0 0 50 100a50 50 0 0 0 30.281-10.262 20.646 20.646 0 0 0-20.29-16.593z" style="marker:none" fill="#4a148c"/><circle style="marker:none" cx="43.623" cy="45.048" r="1.23" fill="#fff"/><circle r="1.23" cy="45.048" cx="58.881" style="marker:none" fill="#fff"/><circle style="marker:none" cx="58.433" cy="47.258" r=".522" fill="#fff"/><circle r=".522" cy="47.258" cx="43.31" style="marker:none" fill="#fff"/><path style="marker:none" d="M58.705 56.318a8.705 8.705 0 0 1-4.352 7.54 8.705 8.705 0 0 1-8.706 0 8.705 8.705 0 0 1-4.352-7.54H50z" fill="#ff7043"/><path d="M50 61.217a6.767 6.767 0 0 0-5.002 2.22 8.705 8.705 0 0 0 .648.42 8.705 8.705 0 0 0 8.708 0 8.705 8.705 0 0 0 .644-.423A6.767 6.767 0 0 0 50 61.217z" style="marker:none" fill="#ef5350"/><path d="M44.096 56.318c-.013.094-.03.187-.03.284 0 1.183.954 2.136 2.137 2.136h7.594a2.132 2.132 0 0 0 2.137-2.136c0-.097-.017-.19-.03-.284H50z" style="marker:none" fill="#fff"/><path d="M58.705 56.318a8.705 8.705 0 0 1-4.352 7.54 8.705 8.705 0 0 1-8.706 0 8.705 8.705 0 0 1-4.352-7.54H50z" style="marker:none" fill="none"/></g><path style="marker:none" d="M287.41 35.533c0 30.575-35.532 55.633-35.532 55.633s-35.533-25.058-35.533-55.633C216.345 15.909 232.254 0 251.878 0c19.624 0 35.533 15.909 35.533 35.533z" fill="#c0dce3" stroke-width="1.489"/><g transform="matrix(.533 0 0 .533 146.112 8.883)" stroke-width=".496"><path d="M198.438 0a50 50 0 0 0-50 50 50 50 0 0 0 19.755 39.738h60.526A50 50 0 0 0 248.438 50a50 50 0 0 0-50-50z" style="marker:none" fill="#91a1ab"/><rect style="marker:none" width="34.411" height="44.411" x="181.037" y="25.237" ry="17.205" fill="#fdcc9b"/><circle style="marker:none" cx="190.82" cy="46.897" r="3.589" fill="#1a1a1a"/><circle r="3.589" cy="46.897" cx="206.055" style="marker:none" fill="#1a1a1a"/><path style="marker:none" d="M188.447 73.145a20.647 20.647 0 0 0-20.287 16.568A50 50 0 0 0 198.438 100a50 50 0 0 0 30.28-10.262 20.646 20.646 0 0 0-20.29-16.593z" fill="#d32f2f"/><circle r="1.23" cy="45.048" cx="192.06" style="marker:none" fill="#fff"/><circle style="marker:none" cx="207.319" cy="45.048" r="1.23" fill="#fff"/><circle r=".522" cy="47.258" cx="206.87" style="marker:none" fill="#fff"/><circle style="marker:none" cx="191.747" cy="47.258" r=".522" fill="#fff"/><path d="M207.143 56.318a8.705 8.705 0 0 1-4.353 7.54 8.705 8.705 0 0 1-8.705 0 8.705 8.705 0 0 1-4.353-7.54h8.706z" style="marker:none" fill="#ff7043"/><path style="marker:none" d="M198.438 61.217a6.767 6.767 0 0 0-5.002 2.22 8.705 8.705 0 0 0 .648.42 8.705 8.705 0 0 0 8.707 0 8.705 8.705 0 0 0 .645-.423 6.767 6.767 0 0 0-4.999-2.217z" fill="#ef5350"/><path style="marker:none" d="M192.533 56.318c-.012.094-.03.187-.03.284 0 1.183.954 2.136 2.138 2.136h7.593a2.132 2.132 0 0 0 2.137-2.136c0-.097-.017-.19-.03-.284h-5.904z" fill="#fff"/><path style="marker:none" d="M207.143 56.318a8.705 8.705 0 0 1-4.353 7.54 8.705 8.705 0 0 1-8.705 0 8.705 8.705 0 0 1-4.353-7.54h8.706z" fill="none"/><path d="M198.242 14.58l-8.627 8.627-2.633-2.02-6.695 8.725-2.642-.67 3.392 21.592 5.684-15.191 11.521-5.526 11.522 5.526 5.683 15.191 3.393-21.592-2.643.67-6.695-8.724-2.633 2.019z" fill="#ff9e00"/></g><path style="marker:none" d="M899.473 302.526c0 30.574-35.533 55.633-35.533 55.633s-35.533-25.059-35.533-55.633c0-19.625 15.909-35.533 35.533-35.533 19.625 0 35.533 15.908 35.533 35.533z" fill="#c0dce3" stroke-width="1.489"/><g stroke-width=".496"><path d="M863.94 275.876a26.65 26.65 0 0 0-26.65 26.65 26.65 26.65 0 0 0 10.53 21.18h32.26a26.65 26.65 0 0 0 10.51-21.18 26.65 26.65 0 0 0-26.65-26.65z" style="marker:none" fill="#91a1ab"/><g transform="matrix(.533 0 0 .533 660.944 275.876)"><path style="marker:none" d="M380.664 19.428v9.586l-19.639 4.117c-2.241 5.412-5.123 9.327-4.836 14.988.666 13.131-.185 21.785-1.66 32.99h52.27c-1.475-11.205-2.326-19.859-1.66-32.99.004-.083 0-.162.004-.244a24.951 24.951 0 0 0 .279-3.504 24.951 24.951 0 0 0-24.758-24.943z"/><path style="marker:none" d="M380.664 19.428a24.951 24.951 0 0 0-24.758 24.943 24.951 24.951 0 0 0 24.758 24.941z"/><rect style="marker:none" width="34.411" height="44.411" x="363.459" y="25.237" ry="17.205" fill="#fdcc9b"/><circle style="marker:none" cx="373.242" cy="46.897" r="3.589" fill="#1a1a1a"/><circle r="3.589" cy="46.897" cx="388.477" style="marker:none" fill="#1a1a1a"/><path style="marker:none" d="M370.87 73.145a20.647 20.647 0 0 0-20.288 16.568A50 50 0 0 0 380.859 100a50 50 0 0 0 30.282-10.262 20.646 20.646 0 0 0-20.291-16.593z" fill="#d81b60"/><circle r="1.23" cy="45.048" cx="374.482" style="marker:none" fill="#fff"/><circle style="marker:none" cx="389.741" cy="45.048" r="1.23" fill="#fff"/><circle r=".522" cy="47.258" cx="389.292" style="marker:none" fill="#fff"/><circle style="marker:none" cx="374.169" cy="47.258" r=".522" fill="#fff"/><path d="M389.565 56.318a8.705 8.705 0 0 1-4.353 7.54 8.705 8.705 0 0 1-8.705 0 8.705 8.705 0 0 1-4.353-7.54h8.705z" style="marker:none" fill="#ff7043"/><path style="marker:none" d="M380.86 61.217a6.767 6.767 0 0 0-5.003 2.22 8.705 8.705 0 0 0 .649.42 8.705 8.705 0 0 0 8.707 0 8.705 8.705 0 0 0 .644-.423 6.767 6.767 0 0 0-4.998-2.217z" fill="#ef5350"/><path style="marker:none" d="M374.955 56.318c-.012.094-.03.187-.03.284 0 1.183.954 2.136 2.138 2.136h7.593a2.132 2.132 0 0 0 2.137-2.136c0-.097-.017-.19-.03-.284h-5.904z" fill="#fff"/><path style="marker:none" d="M389.565 56.318a8.705 8.705 0 0 1-4.353 7.54 8.705 8.705 0 0 1-8.705 0 8.705 8.705 0 0 1-4.353-7.54h8.705z" fill="none"/><path d="M374.201 23.559l-10.623 9.037-2.215 15.508 2.145 5.656c0-2.664.364-4.97.99-6.483l2.223 2.825c-.439-3.33.37-9.245 1.433-10.803 4.2 0 9.916-2.158 12.51-8.422 2.595 6.264 8.31 8.422 12.51 8.422 1.063 1.558 1.872 7.474 1.433 10.803l2.223-2.825c.627 1.513.99 3.819.99 6.483l2.145-5.656-2.215-15.508-10.623-9.037h-6.463z"/></g></g><path style="marker:none" d="M597.995 147.184c0 30.575-35.533 55.633-35.533 55.633s-35.533-25.058-35.533-55.633c0-19.624 15.91-35.533 35.533-35.533 19.625 0 35.533 15.909 35.533 35.533z" fill="#c0dce3" stroke-width="1.489"/><g transform="matrix(.533 0 0 .533 267.024 120.534)" stroke-width=".496"><path d="M554.297 0a50 50 0 0 0-50 50 50 50 0 0 0 19.756 39.738h60.525A50 50 0 0 0 604.297 50a50 50 0 0 0-50-50z" style="marker:none" fill="#91a1ab"/><rect style="marker:none" width="34.411" height="44.411" x="536.896" y="25.237" ry="17.205" fill="#fdcc9b"/><circle style="marker:none" cx="546.68" cy="46.897" r="3.589" fill="#1a1a1a"/><circle r="3.589" cy="46.897" cx="561.914" style="marker:none" fill="#1a1a1a"/><path style="marker:none" d="M544.307 73.145a20.647 20.647 0 0 0-20.287 16.568A50 50 0 0 0 554.297 100a50 50 0 0 0 30.281-10.262 20.646 20.646 0 0 0-20.29-16.593z" fill="#00897b"/><circle r="1.23" cy="45.048" cx="547.92" style="marker:none" fill="#fff"/><circle style="marker:none" cx="563.178" cy="45.048" r="1.23" fill="#fff"/><circle r=".522" cy="47.258" cx="562.729" style="marker:none" fill="#fff"/><circle style="marker:none" cx="547.607" cy="47.258" r=".522" fill="#fff"/><path d="M563.002 56.318a8.705 8.705 0 0 1-4.352 7.54 8.705 8.705 0 0 1-8.706 0 8.705 8.705 0 0 1-4.353-7.54h8.706z" style="marker:none" fill="#ff7043"/><path style="marker:none" d="M554.297 61.217a6.767 6.767 0 0 0-5.002 2.22 8.705 8.705 0 0 0 .648.42 8.705 8.705 0 0 0 8.707 0 8.705 8.705 0 0 0 .645-.423 6.767 6.767 0 0 0-4.998-2.217z" fill="#ef5350"/><path style="marker:none" d="M548.393 56.318c-.013.094-.03.187-.03.284 0 1.183.954 2.136 2.137 2.136h7.594a2.132 2.132 0 0 0 2.136-2.136c0-.097-.016-.19-.029-.284h-5.904z" fill="#fff"/><path style="marker:none" d="M563.002 56.318a8.705 8.705 0 0 1-4.352 7.54 8.705 8.705 0 0 1-8.706 0 8.705 8.705 0 0 1-4.353-7.54h8.706z" fill="none"/><path d="M567.45 27.383c-.445-2.176-6.067-10.638-19.268-7.535-13.786 3.24-14.531 11.408-14.116 19.484.415 8.076 1.505 12.776 2.83 12.228.673-.28.628-5.917.766-7.147.139-1.23 1.08-6.72 9.474-5.89 8.394.83 15.467-2.213 15.467-2.213s2.847 3.599 4.72 4.288c3.745 1.378 2.517 10.564 3.984 10.564s7.417-21.837-3.857-23.779z" fill="#51362a"/></g><g><path d="M753.888 219.689c0 30.575-35.533 55.633-35.533 55.633s-35.533-25.058-35.533-55.633c0-19.625 15.909-35.533 35.533-35.533 19.624 0 35.533 15.908 35.533 35.533z" style="marker:none" fill="#c0dce3" stroke-width="1.489"/><g transform="matrix(.533 0 0 .533 322.806 193.039)" stroke-width=".496"><path d="M742.123 0a50 50 0 0 0-50 50 50 50 0 0 0 19.756 39.738h60.523A50 50 0 0 0 792.123 50a50 50 0 0 0-50-50z" style="marker:none" fill="#91a1ab"/><path d="M741.928 19.42c-13.78 0-24.951 11.17-24.951 24.951.007.771.05 21.29.128 22.058h49.659c.074-.767.112-21.287.115-22.058 0-13.78-11.171-24.951-24.951-24.951z" style="marker:none" fill="#bf360c"/><rect ry="17.205" y="25.237" x="724.721" height="44.411" width="34.411" style="marker:none" fill="#fdcc9b"/><circle r="3.589" cy="46.897" cx="734.505" style="marker:none" fill="#1a1a1a"/><circle style="marker:none" cx="749.739" cy="46.897" r="3.589" fill="#1a1a1a"/><path d="M732.132 73.145a20.647 20.647 0 0 0-20.287 16.568A50 50 0 0 0 742.122 100a50 50 0 0 0 30.281-10.262 20.646 20.646 0 0 0-20.29-16.593z" style="marker:none" fill="#ab47bc"/><circle style="marker:none" cx="735.745" cy="45.048" r="1.23" fill="#fff"/><circle r="1.23" cy="45.048" cx="751.004" style="marker:none" fill="#fff"/><circle style="marker:none" cx="750.555" cy="47.258" r=".522" fill="#fff"/><circle r=".522" cy="47.258" cx="735.432" style="marker:none" fill="#fff"/><path style="marker:none" d="M750.827 56.318a8.705 8.705 0 0 1-4.352 7.54 8.705 8.705 0 0 1-8.706 0 8.705 8.705 0 0 1-4.352-7.54h8.705z" fill="#ff7043"/><path d="M742.122 61.217a6.767 6.767 0 0 0-5.002 2.22 8.705 8.705 0 0 0 .649.42 8.705 8.705 0 0 0 8.707 0 8.705 8.705 0 0 0 .644-.423 6.767 6.767 0 0 0-4.998-2.217z" style="marker:none" fill="#ef5350"/><path d="M736.218 56.318c-.013.094-.03.187-.03.284 0 1.183.954 2.136 2.137 2.136h7.594a2.132 2.132 0 0 0 2.137-2.136c0-.097-.017-.19-.03-.284h-5.904z" style="marker:none" fill="#fff"/><path d="M750.827 56.318a8.705 8.705 0 0 1-4.352 7.54 8.705 8.705 0 0 1-8.706 0 8.705 8.705 0 0 1-4.352-7.54h8.705z" style="marker:none" fill="none"/><path d="M753.234 33.087c-7.025 4.949-15.484 5.248-23.754 5.248-3.39 3.39-4.604 10.632-4.604 16.432l-4.718-1.447 3.59-17.816 7.39-9.391 16.296-2.831 8.977 5.593 5.87 14.225.345 4.834-3.494 2.071c0-7.566-4.731-7.88-5.898-16.918z" fill="#bf360c"/></g></g><g><path d="M438.368 81.413c0 30.575-35.532 55.633-35.532 55.633s-35.533-25.058-35.533-55.633c0-19.624 15.908-35.533 35.533-35.533 19.624 0 35.532 15.909 35.532 35.533z" style="marker:none" fill="#c0dce3" stroke-width="1.489"/><g transform="matrix(.533 0 0 .533 -62.348 54.763)" stroke-width=".496"><path d="M872.771 0a50 50 0 0 0-50 50 50 50 0 0 0 19.756 39.738h60.526A50 50 0 0 0 922.77 50a50 50 0 0 0-50-50z" style="marker:none" fill="#91a1ab"/><rect style="marker:none" width="34.411" height="44.411" x="855.371" y="25.237" ry="17.205" fill="#6d4c41"/><circle style="marker:none" cx="865.154" cy="46.897" r="3.589" fill="#1a1a1a"/><circle r="3.589" cy="46.897" cx="880.388" style="marker:none" fill="#1a1a1a"/><path style="marker:none" d="M862.78 73.145a20.647 20.647 0 0 0-20.286 16.568A50 50 0 0 0 872.77 100a50 50 0 0 0 30.281-10.262 20.646 20.646 0 0 0-20.29-16.593z" fill="#3949ab"/><circle r="1.23" cy="45.048" cx="866.394" style="marker:none" fill="#fff"/><circle style="marker:none" cx="881.653" cy="45.048" r="1.23" fill="#fff"/><circle r=".522" cy="47.258" cx="881.204" style="marker:none" fill="#fff"/><circle style="marker:none" cx="866.081" cy="47.258" r=".522" fill="#fff"/><path d="M881.477 56.318a8.705 8.705 0 0 1-4.353 7.54 8.705 8.705 0 0 1-8.706 0 8.705 8.705 0 0 1-4.352-7.54h8.705z" style="marker:none" fill="#ff7043"/><path style="marker:none" d="M872.771 61.217a6.767 6.767 0 0 0-5.002 2.22 8.705 8.705 0 0 0 .649.42 8.705 8.705 0 0 0 8.707 0 8.705 8.705 0 0 0 .644-.423 6.767 6.767 0 0 0-4.998-2.217z" fill="#ef5350"/><path style="marker:none" d="M866.867 56.318c-.013.094-.03.187-.03.284 0 1.183.954 2.136 2.137 2.136h7.594a2.132 2.132 0 0 0 2.137-2.136c0-.097-.017-.19-.03-.284h-5.904z" fill="#fff"/><path style="marker:none" d="M881.477 56.318a8.705 8.705 0 0 1-4.353 7.54 8.705 8.705 0 0 1-8.706 0 8.705 8.705 0 0 1-4.352-7.54h8.705z" fill="none"/><path d="M872.576 14.377a6.211 6.211 0 0 0-.533.027 6.211 6.211 0 0 0-.277.033 6.211 6.211 0 0 0-.35.053 6.211 6.211 0 0 0-.25.057 6.211 6.211 0 0 0-.352.09 6.211 6.211 0 0 0-.218.072 6.211 6.211 0 0 0-.399.148 6.211 6.211 0 0 0-.127.057 6.211 6.211 0 0 0-.427.207 6.211 6.211 0 0 0-.13.072 6.211 6.211 0 0 0-.423.262 6.211 6.211 0 0 0-.063.045 6.211 6.211 0 0 0-.425.322 6.211 6.211 0 0 0-.086.076 6.211 6.211 0 0 0-.37.346 6.211 6.211 0 0 0-.019.018 4.675 4.675 0 0 0-1.762-.348 4.675 4.675 0 0 0-4.037 2.326 4.675 4.675 0 0 0-2.017-.465 4.675 4.675 0 0 0-3.7 1.825 3.829 3.829 0 0 0-.976-.133 3.829 3.829 0 0 0-3.828 3.83 3.829 3.829 0 0 0 .271 1.402l3.293 25.008s-.639-12.956 5.051-15.965c2.817-1.49 7.17 1.065 12.154 1.065 4.985 0 9.338-2.555 12.155-1.065 5.689 3.01 5.05 15.965 5.05 15.965l3.293-24.996a3.829 3.829 0 0 0 .272-1.414 3.829 3.829 0 0 0-3.828-3.83 3.829 3.829 0 0 0-.977.133 4.675 4.675 0 0 0-3.7-1.825 4.675 4.675 0 0 0-2.017.465 4.675 4.675 0 0 0-4.037-2.326 4.675 4.675 0 0 0-1.762.348 6.211 6.211 0 0 0-.019-.018 6.211 6.211 0 0 0-.37-.346 6.211 6.211 0 0 0-.085-.076 6.211 6.211 0 0 0-.426-.322 6.211 6.211 0 0 0-.063-.045 6.211 6.211 0 0 0-.423-.262 6.211 6.211 0 0 0-.13-.072 6.211 6.211 0 0 0-.427-.207 6.211 6.211 0 0 0-.127-.057 6.211 6.211 0 0 0-.398-.148 6.211 6.211 0 0 0-.22-.072 6.211 6.211 0 0 0-.35-.09 6.211 6.211 0 0 0-.25-.057 6.211 6.211 0 0 0-.35-.052 6.211 6.211 0 0 0-.278-.034 6.211 6.211 0 0 0-.533-.027z"/></g></g><g stroke-width="1.489"><path d="M232.6 156.192c0 30.575-35.534 55.633-35.534 55.633s-35.532-25.058-35.532-55.633c0-19.624 15.908-35.533 35.532-35.533 19.625 0 35.533 15.909 35.533 35.533z" style="marker:none" fill="#c0dce3"/></g><g transform="translate(-451.868 254.123)"><ellipse style="marker:none" cx="648.935" cy="-97.931" rx="26.65" ry="26.65" fill="#91a1ab"/><path style="marker:none" d="M646.743-119.473a2.861 2.861 0 0 0-.286.015 2.861 2.861 0 0 0-2.57 2.73 2.354 2.354 0 0 0-1.619-.647 2.354 2.354 0 0 0-2.353 2.353 2.354 2.354 0 0 0 .336 1.207 2.354 2.354 0 0 0-1.556-.591 2.354 2.354 0 0 0-2.355 2.353 2.354 2.354 0 0 0 .67 1.644 1.958 1.958 0 0 0-.48-.062 1.958 1.958 0 0 0-1.959 1.958 1.958 1.958 0 0 0 1.158 1.785 1.685 1.685 0 0 0-1.678 1.686 1.685 1.685 0 0 0 1.45 1.666 13.434 13.434 0 0 0 0 .018 1.45 1.45 0 0 0-1.45 1.451 1.45 1.45 0 0 0 1.102 1.406 1.45 1.45 0 0 0-.506 1.1 1.45 1.45 0 0 0 1.324 1.445 1.45 1.45 0 0 0-.336.927 1.45 1.45 0 0 0 1.333 1.445 1.45 1.45 0 0 0-.083.479 1.45 1.45 0 0 0 1.45 1.45 1.45 1.45 0 0 0 .503-.09 1.45 1.45 0 0 0-.045.351 1.45 1.45 0 0 0 1.452 1.45 1.45 1.45 0 0 0 1.002-.404 13.434 13.434 0 0 0 7.689 2.424 13.434 13.434 0 0 0 7.542-2.333 1.45 1.45 0 0 0 .899.314 1.45 1.45 0 0 0 1.45-1.45 1.45 1.45 0 0 0-.044-.352 1.45 1.45 0 0 0 .503.09 1.45 1.45 0 0 0 1.45-1.45 1.45 1.45 0 0 0-.082-.479 1.45 1.45 0 0 0 1.332-1.445 1.45 1.45 0 0 0-.336-.927 1.45 1.45 0 0 0 1.324-1.445 1.45 1.45 0 0 0-.506-1.1 1.45 1.45 0 0 0 1.101-1.406 1.45 1.45 0 0 0-1.2-1.43 13.434 13.434 0 0 0 0-.021 13.434 13.434 0 0 0 0-.07 1.685 1.685 0 0 0 1.202-1.615 1.685 1.685 0 0 0-1.639-1.684 13.434 13.434 0 0 0-.005-.019 1.958 1.958 0 0 0 1.122-1.767 1.958 1.958 0 0 0-1.958-1.958 1.958 1.958 0 0 0-.48.062 2.354 2.354 0 0 0 .67-1.644 2.354 2.354 0 0 0-2.355-2.353 2.354 2.354 0 0 0-1.557.591 2.354 2.354 0 0 0 .337-1.207 2.354 2.354 0 0 0-2.354-2.353 2.354 2.354 0 0 0-1.62.65 2.861 2.861 0 0 0-2.854-2.748 2.861 2.861 0 0 0-2.066.886 2.861 2.861 0 0 0-.02-.019 2.861 2.861 0 0 0-.144-.137 2.861 2.861 0 0 0-.074-.065 2.861 2.861 0 0 0-.15-.116 2.861 2.861 0 0 0-.072-.051 2.861 2.861 0 0 0-.165-.104 2.861 2.861 0 0 0-.087-.05 2.861 2.861 0 0 0-.153-.075 2.861 2.861 0 0 0-.111-.05 2.861 2.861 0 0 0-.155-.057 2.861 2.861 0 0 0-.108-.037 2.861 2.861 0 0 0-.174-.046 2.861 2.861 0 0 0-.104-.022 2.861 2.861 0 0 0-.159-.026 2.861 2.861 0 0 0-.138-.017 2.861 2.861 0 0 0-.192-.012 2.861 2.861 0 0 0-.062-.002z"/><rect style="marker:none" width="18.341" height="23.671" x="639.66" y="-111.13" ry="9.17" fill="#8d6e63"/><ellipse style="marker:none" cx="644.875" cy="-99.585" rx="1.913" ry="1.913" fill="#1a1a1a"/><ellipse cy="-99.585" cx="652.995" style="marker:none" rx="1.913" ry="1.913" fill="#1a1a1a"/><path style="marker:none" d="M643.61-85.595c-5.358 0-9.798 3.78-10.813 8.83a26.65 26.65 0 0 0 16.138 5.483 26.65 26.65 0 0 0 16.14-5.469 11.004 11.004 0 0 0-10.815-8.844z" fill="#ee6f0b"/><ellipse cy="-100.571" cx="645.536" style="marker:none" rx=".656" ry=".656" fill="#fff"/><ellipse style="marker:none" cx="653.669" cy="-100.571" rx=".656" ry=".656" fill="#fff"/><ellipse cy="-99.393" cx="653.429" style="marker:none" rx=".278" ry=".278" fill="#fff"/><ellipse style="marker:none" cx="645.369" cy="-99.393" rx=".278" ry=".278" fill="#fff"/><path d="M653.575-94.564a4.64 4.64 0 0 1-2.32 4.019 4.64 4.64 0 0 1-4.64 0 4.64 4.64 0 0 1-2.32-4.019h4.64z" style="marker:none" fill="#ff7043"/><path style="marker:none" d="M648.935-91.953a3.607 3.607 0 0 0-2.666 1.184 4.64 4.64 0 0 0 .345.224 4.64 4.64 0 0 0 4.641 0 4.64 4.64 0 0 0 .344-.226 3.607 3.607 0 0 0-2.664-1.182z" fill="#ef5350"/><path style="marker:none" d="M645.788-94.564c-.006.05-.016.1-.016.151 0 .631.508 1.14 1.14 1.14h4.047c.63 0 1.139-.509 1.139-1.14 0-.051-.01-.1-.016-.15h-3.147z" fill="#fff"/><path style="marker:none" d="M653.575-94.564a4.64 4.64 0 0 1-2.32 4.019 4.64 4.64 0 0 1-4.64 0 4.64 4.64 0 0 1-2.32-4.019h4.64z" fill="none"/><path style="marker:none" d="M641.811-113.608l-1.883 5.879.024.002a2.693 2.693 0 0 0-2.532 2.684 2.693 2.693 0 0 0 2.694 2.694 2.693 2.693 0 0 0 2.619-2.08 2.693 2.693 0 0 0 1.026.206 2.693 2.693 0 0 0 2.676-2.399 3.107 3.107 0 0 0 .209.23 3.107 3.107 0 0 0 .23.206 3.107 3.107 0 0 0 .244.18 3.107 3.107 0 0 0 .036.022 3.107 3.107 0 0 0 .233.137 3.107 3.107 0 0 0 .033.016 3.107 3.107 0 0 0 .24.11 3.107 3.107 0 0 0 .077.029 3.107 3.107 0 0 0 .214.075 3.107 3.107 0 0 0 .085.022 3.107 3.107 0 0 0 .222.05 3.107 3.107 0 0 0 .081.013 3.107 3.107 0 0 0 .212.028 3.107 3.107 0 0 0 .28.015 3.107 3.107 0 0 0 .28-.015 3.107 3.107 0 0 0 .21-.028 3.107 3.107 0 0 0 .082-.012 3.107 3.107 0 0 0 .222-.051 3.107 3.107 0 0 0 .085-.022 3.107 3.107 0 0 0 .214-.075 3.107 3.107 0 0 0 .077-.028 3.107 3.107 0 0 0 .24-.11 3.107 3.107 0 0 0 .033-.017 3.107 3.107 0 0 0 .233-.137 3.107 3.107 0 0 0 .036-.022 3.107 3.107 0 0 0 .233-.171 3.107 3.107 0 0 0 .013-.01 3.107 3.107 0 0 0 .228-.206 3.107 3.107 0 0 0 .21-.229 2.693 2.693 0 0 0 2.675 2.399 2.693 2.693 0 0 0 1.026-.205 2.693 2.693 0 0 0 2.62 2.079 2.693 2.693 0 0 0 2.692-2.693 2.693 2.693 0 0 0-2.693-2.694 2.693 2.693 0 0 0-1.026.206 2.693 2.693 0 0 0-.269-.69l2.15-1.537zm-1.125 5.938l.48.036a2.693 2.693 0 0 0-.026.103 2.693 2.693 0 0 0-.454-.139z"/></g></svg>