<svg xmlns="http://www.w3.org/2000/svg" viewBox="0 0 299.3317 99.9567">
  <g fill="#2b3039">
    <path d="M0 37.9969h2.4788v2.4788H0zM3.274 38.665h1.9443v1.9444H3.274zM5.7797 37.763H7.724v1.9443H5.7797zM8.5526 36.694h1.5434v1.5434H8.5526zM10.4903 34.4222h2.2115v2.2115h-2.2115zM11.2587 37.2619h1.5768v1.5768h-1.5768zM13.5477 33.8093h2.0111v2.011h-2.011zM13.3635 36.3264h1.4097v1.4097h-1.4097zM15.3737 36.289h1.7438v1.7438h-1.7438zM13.8944 38.5558h2.2784v2.2784h-2.2784zM17.8345 33.4054h2.6793v2.6793h-2.6793zM18.1041 36.5809h2.078v2.0779h-2.078zM21.5908 36.1408h1.7438v1.7438h-1.7438zM15.3346 30.1793h1.7438v1.7438h-1.7438zM17.4607 30.7935h2.3344v2.3344h-2.3344zM21.0515 33.4157h2.3344V35.75h-2.3344zM24.0517 35.6127h2.3344v2.3344h-2.3344zM22.5634 29.7304h3.1376v3.1376h-3.1376zM20.2483 31.136h1.8147v1.8147h-1.8147zM15.5708 26.683h2.7833v2.7833h-2.7833zM19.0275 28.6855h1.6493v1.6493h-1.6493zM23.8391 33.392h1.6021v1.6022h-1.602zM16.185 24.7695h1.5076v1.5076H16.185zM16.185 34.715h1.106v1.106h-1.106zM17.2954 22.6906h1.673v1.673h-1.673zM12.487 41.0112h1.1657v1.1657H12.487zM18.8103 25.9293h2.1338v2.1338h-2.1338zM26.1542 32.258h1.6021v1.6022h-1.602zM26.296 34.148h1.035v1.035h-1.035zM16.8616 38.632h.7218v.7219h-.7218zM26.2438 29.5374h2.1338v2.1338h-2.1338zM21.5665 27.2657h2.1338v2.1338h-2.1338zM19.4877 22.848h2.5117v2.5118h-2.5117zM21.3185 19.8597h2.5117v2.5117h-2.5117zM19.715 21.2127h1.0918v1.0919H19.715zM21.0841 29.8216h.8848v.8848h-.8848zM22.6548 17.688h1.71v1.71h-1.71zM22.5485 22.756h1.71v1.71h-1.71zM22.5212 24.8528h2.206v2.206h-2.206zM21.3322 25.9828h.8848v.8848h-.8848zM25.0862 22.285h3.1496v3.1496h-3.1496zM24.1885 27.7184h1.3306v1.3306h-1.3306zM25.3933 25.8286h1.5904v1.5904h-1.5904zM27.5903 25.8758h3.1968v3.1968h-3.1968zM26.1965 28.0492h.9998v.9998h-.9998zM24.841 19.538h2.1327v2.1329H24.841zM24.7855 16.2047h2.5816v2.5816h-2.5816zM27.7255 14.7346h1.8132v1.8132h-1.8132zM29.7551 12.9807h2.164v2.164h-2.164zM27.7338 17.1234h2.4647v2.4647h-2.4647zM28.7361 23.2706h2.0304v2.0304h-2.0304zM27.5835 19.8295h1.0448v1.0448h-1.0448zM29.4627 22.3017h.694v.694h-.694zM30.5068 15.5365h2.5983v2.5983h-2.5983zM30.5402 18.4597h1.713v1.713h-1.713zM30.0891 20.4642h1.4457v1.4457h-1.4457zM31.0246 22.168h2.1974v2.1975h-2.1974zM31.2083 24.8575h2.9157v2.9157h-2.9157zM31.3086 28.1817h2.3812v2.3812h-2.3812zM28.9415 29.4372h1.616v1.6159h-1.616zM32.2941 11.093h2.164v2.164h-2.164zM30.9912 11.6277h.9613v.9613h-.9613zM32.3108 13.7658h1.1617v1.1617h-1.1617zM33.8476 14.4674h2.0638v2.0638h-2.0638zM33.5302 16.9897h1.7631v1.763h-1.763zM31.9767 20.5478h1.262v1.262h-1.262zM32.6115 19.011h1.262v1.262h-1.262zM33.6221 20.8318h1.9134v1.9134h-1.9134zM34.8833 23.7216h2.1974v2.1974h-2.1974zM34.5492 26.294h2.6651v2.6652h-2.665zM34.282 29.4512h1.2118v1.2119H34.282zM34.3321 19.4119h.8945v.8945h-.8945zM34.023 13.5486h.644v.6439h-.644zM34.8666 10.8759h1.3288v1.3288h-1.3288zM35.2508 12.5297h1.6295v1.6295h-1.6295zM36.7876 10.6087h1.6295v1.6295h-1.6295zM36.4702 17.7857h3.2331v-3.2331h-3.233zM36.154 20.2926h2.594v2.5939h-2.594zM38.006 25.6579h3.3026v3.3026H38.006zM37.451 23.272h1.6252v1.6253H37.451zM39.8013 23.2505h1.6963v1.6963h-1.6963zM39.4985 19.7985h2.8322v2.8322h-2.8322zM42.0218 23.7927h2.8322v2.8322h-2.8322zM42.1457 27.282h2.4313v2.4313h-2.4313zM45.2994 26.0063h1.2147v1.2147h-1.2147zM45.4411 22.0258h3.4825v3.4825h-3.4825zM42.8295 21.1332h2.1471v2.147h-2.147zM38.9093 11.128h3v3h-3zM37.4077 12.8647h1.0743v1.0743h-1.0743zM40.2264 16.0173h3.1386v3.1386h-3.1386zM41.3547 8.2755h2.3496v2.3496h-2.3496zM39.0555 9.1204h1.6295v1.6295h-1.6295zM42.2462 13.2297h2.4535v2.4535h-2.4535zM35.9621 18.396h1.367v1.367h-1.367zM33.7223 23.354h.811v.811h-.811zM38.1355 18.4906h.9417v.9417h-.9417zM43.1602 19.4323h1.3203v1.3203h-1.3203zM40.5024 14.4948h1.0743v1.0743h-1.0743zM42.4071 11.2154h1.5812v1.5812h-1.5812zM49.4571 23.6912h1.2147v1.2147h-1.2147zM49.3862 21.4942h1.5926v1.5926h-1.5926zM45.5592 19.6516h1.5926v1.5926h-1.5926zM47.9925 19.0138h2.136v2.136h-2.136zM50.7564 18.1633h2.8447v2.8447h-2.8447zM43.9056 16.1199h2.892v2.8919h-2.892zM48.8665 16.9585h1.5926v1.5926h-1.5926zM47.325 17.4984h.9417v.9417h-.9417zM44.5613 9.4972h2.4535v2.4535h-2.4535zM45.6513 12.4704h2.7208v2.7208h-2.7208zM47.5255 15.761h1.1756v1.1757h-1.1756zM44.461 7.3924h1.5515v1.5515H44.461zM46.5658 6.5906h2.2531v2.253h-2.253zM47.568 9.3635h2.4535v2.4535H47.568zM52.8088 15.121h1.9601v1.9602h-1.96zM49.067 13.5508h2.7954v2.7954H49.067zM51.2004 16.7634h.9417v.9417h-.9417zM54.1785 17.7603h1.5926v1.5926h-1.5926zM55.3478 14.8036h2.428v2.4279h-2.428zM56.2391 17.6777h.6801v.68h-.68zM53.3433 12.0976h2.4947v2.4947h-2.4947zM49.2051 5.3044h2.1528v2.1528h-2.1528zM51.8778 4.469h1.4847v1.4848h-1.4847zM51.9446 6.5739h1.8856v1.8856h-1.8856zM54.751 6.3066h2.5202v2.5203H54.751zM57.5906 4.6362h1.5181v1.518h-1.518zM50.5915 9.1965h2.6874v2.6874h-2.6874zM49.8306 12.2198h.9417v.9417h-.9417zM51.4557 12.0809h1.2251v1.225h-1.225zM49.8975 7.9435h.9417v.9417h-.9417zM53.6818 10.182H55.2V11.7h-1.518zM55.7198 10.7667h.9v.9h-.9zM55.8868 9.163h1.3844v1.3845h-1.3844zM56.3011 11.8325h1.7371v1.737h-1.737zM58.0261 7.9306h1.9041v1.904h-1.904zM56.6185 13.7368h.8351v.835h-.835zM58.1218 14.8727h1.3362v1.3362h-1.3362zM58.4058 12.6176h1.804v1.8039h-1.804zM58.506 10.0953h1.921v1.9209h-1.921zM57.3568 10.7166h.9v.9h-.9zM57.7254 6.494h1.0522v1.0522h-1.0522zM59.4292 4.8403H61.3V6.711h-1.8707zM59.279 6.9283h.718v.718h-.718zM61.646 5.9467h1.5253V7.472H61.646zM60.6603 12.9866h1.2878v1.2878h-1.2878zM63.5955 5.5334h2.0792v2.0792h-2.0792zM65.6217 3.9923h1.2581v1.258h-1.258zM63.6134 4.6772h.5982v.5982h-.5982zM64.5317 4.37h.8522v.8523h-.8522zM64.3871 8.0295h2.1403v2.1403h-2.1403zM65.9197 5.7288h1.138v1.138h-1.138zM66.252 10.558h.7806v.7808h-.7807zM67.7638 10.1919h1.0641v1.064h-1.064zM69.8061 6.0303h1.9596v1.9596h-1.9596zM70.7603 1.8904h.8238v.8238h-.8238zM70.931 3.1787h1.1912v1.1912H70.931zM71.1842 4.8777h.6901v.69h-.69zM70.4164 8.3913h1.246v1.2459h-1.246zM69.255 9.9892h1.4584v1.4585H69.255zM68.2855 13.5974h1.091v1.091h-1.091zM68.854 11.9603h1.208v1.208h-1.208zM69.9756 13.7823h.9073v.9073h-.9073zM71.1382 10.162h2.0241v2.024h-2.024zM72.4872 3.4912h1.943V5.434h-1.943zM71.9694 1.2027h1.659v1.659h-1.659zM71.916 12.5956h2.2236v2.2236H71.916zM73.5312 9.7239h1.3416v1.3416h-1.3416zM74.9594 3.6248h1.8928v1.8928h-1.8928zM73.9906 1.1526h1.8928v1.8928h-1.8928zM74.6086 0h.8405v.8405h-.8405zM76.534.4329h2.1931V2.626H76.534zM77.2662 2.9606h1.461v1.4609h-1.461zM77.7623 4.8977h1.7444V6.642h-1.7444zM75.8961 8.2759h2.8695v2.8695h-2.8695zM74.7335 11.5916h3.0618v3.0618h-3.0618zM61.943 4.7774h.8654v.8655h-.8655zM66.9573 7.1698h2.4947v2.4947h-2.4947zM65.7143 11.6304h2.335v2.335h-2.335zM60.76 7.8546h3.096v3.096H60.76zM67.2975 2.4505h3.237v3.237h-3.237zM67.824 6.0629h.7705v.7705h-.7705zM60.9794 11.5753h.7121v.712h-.712zM72.3592 5.941h3.1905v3.1906h-3.1905zM79.5245.3336h3.3174V3.651h-3.3174zM78.1388 12.4222h2.6472v2.6472h-2.6472zM88.1316 6.6108h3.4268v3.4268h-3.4268zM85.9833 1.9448h3.8617v3.8617h-3.8617zM89.8406 10.9625h3.39v3.39h-3.39zM93.0682 14.7718h2.9543v2.9543h-2.9543zM84.0693 12.8868h2.0882v2.0882h-2.0882zM85.266.2172h1.2247v1.2247H85.266zM83.7626.735h.8405v.8405h-.8405zM80.0626 4.1928h2.2937v2.2937h-2.2937zM83.604 2.489h1.9595v1.9596H83.604zM79.3456 7.1099h3.2631v3.263h-3.263zM83.2654 4.9467h1.532v1.5319h-1.532zM83.112 6.975h2.1403v2.1403H83.112zM86.9957 13.7018h2.335v2.335h-2.335zM86.608 10.695h2.335v2.335h-2.335zM79.2283 11.0473h.8875v.8875h-.8875zM85.6831 9.06h1.2891v1.289h-1.289zM83.368 9.6506h1.2891v1.289h-1.289zM85.1398 11.0207h.8875v.8875h-.8875zM90.7552 1.236h2.9167v2.9168h-2.9167zM90.8485 4.5924h1.532v1.5319h-1.532zM92.2323 7.7477h2.3418v2.3418h-2.3418zM92.752 4.7239h2.4126v2.4126H92.752zM90.4923 15.2059h1.9978v1.9978h-1.9978zM92.0173 20.7865h3.2378v3.2378h-3.2378zM85.801 25.8557h3.9465v3.9465H85.801zM88.106 21.8519h2.5476v2.5476H88.106zM85.5886 22.7616h1.7852v1.7852h-1.7852zM80.68 22.348h4.0132v4.0133H80.68zM78.2562 22.5419h1.654v1.6539h-1.654zM83.5192 27.2013h1.2891v1.289h-1.289zM95.7465 3.9568h3.0488v3.0488h-3.0488zM95.384 7.792h3.6866v3.6866H95.384zM96.7923 13.9162h3.4976v3.4976h-3.4976zM90.1811 27.3464h2.6708v2.6708h-2.6708zM93.5022 24.462h3.3323v3.3323h-3.3323zM98.9977 18.5227h3.4697v3.4697h-3.4697zM102.1012 28.7142h4.6552v4.6552h-4.6552zM90.7842 24.917h1.7852v1.7852h-1.7852zM96.8288 18.0069h1.7852v1.7852h-1.7852zM95.8817 20.9113h2.2195v2.2195h-2.2195zM98.592 22.6566h2.2863v2.2863H98.592zM97.3884 25.6154h3.155v3.1549h-3.155zM98.9331 29.5092h2.3522v2.3522h-2.3522zM101.3087 22.562h2.5934v2.5934h-2.5934zM94.3648 12.131h2.1395v2.1395h-2.1395zM99.4847 2.9689h3.0488v3.0488h-3.0488zM99.7983 6.5492h3.9398v3.9398h-3.9398zM99.5387 11.2718h2.0923v2.0923h-2.0923zM97.5185 12.0602h1.2891v1.289h-1.289zM102.6982 13.0764h4.1827v4.1827h-4.1827zM102.5658 11.1635h1.2891v1.289h-1.289zM100.913 15.0299h1.289v1.289h-1.289zM62.4904 11.7975h2.736v2.7359h-2.736zM104.3532 9.2504h2.7276v2.7276h-2.7276zM108.4798 3.8392h2.0923v2.0923h-2.0923zM111.326 4.5809h2.7728v2.7728h-2.7728zM107.7324 18.0105h2.2713v2.2713h-2.2713zM102.905 17.9099h2.4044v2.4044h-2.4044zM107.2747 26.4989h3.2797v3.2797h-3.2797zM104.238 20.6249h3.3966v3.3966h-3.3966zM91.7582 18.0208h2.141v2.141h-2.141zM107.579 9.7007h3.6701v3.67h-3.67zM110.7137 19.5317h3.2331v3.233h-3.233zM104.512 5.2309h3.233v3.233h-3.233zM107.4298 14.5h2.1464v2.1465h-2.1464zM107.9834 30.3088h2.1275v2.1275h-2.1275zM111.2895 28.2922h1.7684v1.7684h-1.7684zM110.6574 30.6447h2.619v2.6189h-2.619zM101.5468 25.63h2.619v2.619h-2.619zM104.618 24.8978h2.2408v2.2409h-2.2409zM94.3653 18.3068H96.37v2.0047h-2.0047zM93.6718 28.2912h1.7852v1.7852h-1.7852zM96.4054 29.1312h1.2655v1.2655h-1.2655zM81.0805 10.8098h1.7852v1.7852h-1.7852zM81.8128 13.361h1.4545v1.4546h-1.4545zM76.3085 6.3213h1.171v1.171h-1.171zM85.8052 6.3449h1.7852V8.13h-1.7852zM83.372 11.5185h1.0765v1.0765H83.372zM103.0976 3.5223h1.3363v1.3363h-1.3363zM107.9964 23.9296h2.1221v2.122h-2.122zM100.8766 16.9936h.823v.8229h-.823zM97.0587 23.7878h.9882v.9882h-.9882zM111.9908 8.2404h3.274v3.2739h-3.274zM108.5341 6.4248h2.4467v2.4467h-2.4467zM28.4772 21.1324h.8611v.861h-.861zM28.995 20.0299h.8611v.861h-.861zM64.5155 10.499h.9224v.9224h-.9224zM54.2498 9.1464h.6661v.666h-.666zM108.3602 21.1029h1.6915v1.6915h-1.6915zM110.3166 13.9037h2.385v2.385h-2.385zM110.7907 16.7393h2.1177v2.1177h-2.1177zM111.0144 23.5408h3.9013v3.9013h-3.9013zM113.7978 28.8406h2.953v2.953h-2.953zM114.2122 32.2382h1.2655v1.2655h-1.2655zM101.4606.9498h1.3363V2.286h-1.3363zM105.721 18.5638h1.3907v1.3908h-1.3908zM116.832 3.2837h2.99v2.99h-2.99zM116.6331 7.2116h4.0294v4.0294h-4.0294zM119.0205 11.8139h4.0294v4.0294h-4.0294zM114.9232 12.0482h3.2331v3.233h-3.233zM112.7701 12.0157h1.3908v1.3908h-1.3908zM113.5075 15.7944h2.1177v2.1177h-2.1177zM113.219 14.1418h.8947v.8947h-.8947zM116.8275 16.566h3.9013v3.9014h-3.9013zM115.4084 21.3202h3.9013v3.9013h-3.9013zM119.8968 21.2729h2.4838v2.4838h-2.4838zM115.587 25.937h2.4017v2.4018h-2.4017zM114.474 18.7309h1.3908v1.3908h-1.3908zM118.5896 26.0572h3.5283v3.5283h-3.5283zM117.406 30.177h2.953v2.953h-2.953zM120.12 24.2099h1.3908v1.3908H120.12zM121.7822 16.6057H123.9v2.1177h-2.1177zM121.3896 19.2988h1.3908v1.3908h-1.3908zM121.1955 8.5844h2.76v2.7599h-2.76zM120.3937 4.4752h1.7576v1.7576h-1.7576zM124.349 7.2928h2.6224v2.6225h-2.6225zM123.6807 11.7695h3.0568v3.0568h-3.0568zM124.6447 10.3666h.8947v.8947h-.8947zM123.1083 19.7399h3.6006v3.6006h-3.6006zM122.6845 24.2303h2.953v2.953h-2.953zM121.1946 30.7683h1.2655v1.2655h-1.2655zM122.72 27.821h2.1831v2.1832H122.72zM124.2985 15.4937h2.1177v2.1177h-2.1177zM124.5445 18.2177h.8947v.8947h-.8947zM121.3055 6.725h1.3958V8.121h-1.3958zM122.6604 5.2167h1.0128v1.0128h-1.0128zM123.1801 7.2247h.7057v.7057h-.7057zM114.7142 6.012h1.3567v1.3567h-1.3567zM114.4585 3.112h1.848V4.96h-1.848zM112.1014 2.8139h1.173v1.173h-1.173zM126.0273 27.42h2.7177v2.7178h-2.7177zM126.1944 24.313h2.1832v2.1833h-2.1832zM136.5125 20.2179h3.4268v3.4268h-3.4268zM134.3642 15.5519h3.8617v3.8617h-3.8617zM138.2216 24.5696h3.39v3.39h-3.39zM141.4492 28.3789h2.9543v2.9543h-2.9543zM132.4503 26.4939h2.0882v2.0882h-2.0882zM133.647 13.8243h1.2247v1.2247h-1.2247zM132.1436 14.3422h.8405v.8405h-.8405zM131.985 16.096h1.9595v1.9597h-1.9596zM131.6464 18.5539h1.532v1.5319h-1.532zM131.493 20.582h2.1403v2.1404h-2.1403zM135.3766 27.3089h2.335v2.335h-2.335zM134.989 24.302h2.335v2.335h-2.335zM134.0641 22.667h1.2891v1.2892h-1.289zM131.749 23.2577h1.2891v1.289h-1.289zM133.5207 24.6279h.8875v.8875h-.8875zM139.1362 14.8432h2.9167v2.9167h-2.9167zM139.2295 18.1995h1.532v1.5319h-1.532zM140.6132 21.3548h2.3418v2.3418h-2.3418zM141.133 18.331h2.4125v2.4126h-2.4126zM138.8733 28.813h1.9978v1.9978h-1.9978zM140.3983 34.3936h3.2378v3.2378h-3.2378zM126.832 30.7766h3.9465v3.9465h-3.9465zM136.487 35.459h2.5476v2.5476h-2.5476zM133.9696 36.3688h1.7852v1.7852h-1.7852zM136.8781 38.7037h1.2891v1.289h-1.289zM144.1274 17.5639h3.0488v3.0488h-3.0488zM143.765 21.399h3.6866v3.6867h-3.6866zM145.1733 27.5233h3.4976v3.4976h-3.4976zM138.8961 40.9536h2.3367v2.3367h-2.3367zM141.8832 38.069h3.3323v3.3324h-3.3323zM147.3787 32.1298h3.4697v3.4697h-3.4697zM151.3174 42.7223h3.1518v3.1518h-3.1518zM139.1651 38.524h1.7852v1.7853h-1.7852zM145.2097 31.614h1.7852v1.7852h-1.7852zM144.2626 34.5185h2.2195v2.2195h-2.2195zM146.973 36.2637h2.2863V38.55h-2.2863zM145.7693 39.2225h3.155v3.1549h-3.155zM148.283 42.7154h2.3521v2.3522h-2.3522zM149.6896 36.1692h2.5934v2.5934h-2.5934zM142.7457 25.7382h2.1395v2.1395h-2.1395zM148.1792 20.1563h3.9398v3.9398h-3.9398zM147.9196 24.8789h2.0923v2.0923h-2.0923zM145.8995 25.6673h1.2891v1.289h-1.289zM151.0791 26.6836h4.1827v4.1827h-4.1827zM150.9468 24.7706h1.2891v1.289h-1.289zM149.2938 28.637h1.2891v1.2892h-1.289zM152.7342 22.8575h2.7276v2.7276h-2.7276zM144.7655 14.9895h2.0923v2.0923h-2.0923zM156.1134 31.6176h2.2713v2.2713h-2.2713zM151.286 31.517h2.4044v2.4044h-2.4044zM155.6557 40.106h3.2797v3.2798h-3.2797zM152.619 34.232h3.3966v3.3967h-3.3966zM140.1392 31.6279h2.141v2.141h-2.141zM155.96 23.3079h3.6701v3.67h-3.67zM159.0947 33.1389h3.2331v3.233h-3.233zM155.8108 28.1072h2.1464v2.1464h-2.1464zM156.3644 43.916h2.1275v2.1275h-2.1275zM159.6705 41.8993h1.7684v1.7684h-1.7684zM159.0384 44.2519h2.619v2.6189h-2.619zM149.9278 39.2372h2.619v2.6189h-2.619zM152.9988 38.5049h2.241v2.2409h-2.241zM142.7463 31.914h2.0047v2.0047h-2.0047zM142.888 41.9985h1.7852v1.7852h-1.7852zM146.056 42.9388h1.2654v1.2655h-1.2655zM134.1862 19.952h1.7852v1.7853h-1.7852zM131.753 25.1256h1.0764v1.0765h-1.0765zM144.7695 13.3969h.9584v.9584h-.9584zM156.3773 37.5367h2.1221v2.122h-2.122zM149.2576 30.6007h.823v.8229h-.823zM145.4396 37.3949h.9882v.9882h-.9882zM156.7411 34.71h1.6915v1.6915h-1.6915zM158.6976 27.5108h2.385v2.385h-2.385zM159.1717 30.3465h2.1177v2.1177h-2.1177zM159.3954 37.1479h3.9013v3.9013h-3.9013zM162.1788 42.4478h2.953v2.953h-2.953zM163.7862 45.9399h1.6198v1.6198h-1.6198zM142.542 16.5414h1.0055v1.0056h-1.0056zM154.1018 32.171h1.3908v1.3908h-1.3908zM138.3293 11.0322h2.99v2.99h-2.99zM169.5063 27.6594h2.0583v2.0583h-2.0583zM163.037 24.2187h4.4691v4.4692h-4.4692zM160.1488 24.2865h2.226v2.226h-2.226zM161.8884 29.4016h2.1177v2.1177h-2.1177zM161.6 27.749h.8946v.8947H161.6zM165.2084 30.1732h3.9013v3.9013h-3.9013zM163.7893 34.9273h3.9013v3.9013h-3.9013zM168.2778 34.88h2.4838v2.4838h-2.4838zM163.968 39.5443h2.4016v2.4017h-2.4017zM162.855 32.338h1.3907v1.3908h-1.3908zM166.9705 39.6643h3.5283v3.5283h-3.5283zM165.787 43.7842h2.953v2.953h-2.953zM168.501 37.817h1.3908v1.3908h-1.3908zM170.1632 30.2128h2.1177v2.1177h-2.1177zM169.7705 32.9059h1.3908v1.3908h-1.3908zM171.9827 25.0027h3.0568v3.0568h-3.0568zM171.4893 33.347h3.6006v3.6006h-3.6006zM171.0655 37.8374h2.953v2.953h-2.953zM169.5756 44.3754h1.2655v1.2655h-1.2655zM171.1008 41.4282h2.1832v2.1832h-2.1832zM172.6085 28.581h2.1177v2.1178h-2.1177zM172.7365 31.2106h1.3672v1.3672h-1.3672zM142.5233 13.9315h1.848v1.848h-1.848zM141.9142 12.1688h1.173v1.173h-1.173zM174.4083 41.0273h2.7177v2.7177h-2.7177zM174.5753 37.9202h2.1832v2.1832h-2.1832zM136.4752 40.645h1.7852v1.7853h-1.7852zM134.4726 38.737h1.6566v1.6567h-1.6566zM135.8881 31.32h3.2378v3.2378h-3.2378zM129.5301 27.7098h2.335v2.335h-2.335zM129.0876 24.8918h2.1403v2.1403h-2.1403zM127.2816 15.3515h3.8617v3.8617h-3.8617zM127.4766 9.4644h2.9167v2.9167h-2.9167zM130.9644 7.608h3.0488v3.0489h-3.0488zM134.4645 7.6675h2.0242v2.0242h-2.0242zM134.5926 10.166h2.9167v2.9167h-2.9167zM136.2561 13.6559h1.532v1.5319h-1.532zM127.6727 12.9212h1.8505v1.8505h-1.8505zM132.4624 11.0682h1.5963v1.5963h-1.5963zM130.8588 11.135h1.162v1.162h-1.162zM126.1147 10.3666h.8947v.8947h-.8947zM130.2763 12.9846h1.3908v1.3908h-1.3908zM127.3413 21.7253h2.1424v2.1424h-2.1424zM127.406 19.9336h1.289v1.289h-1.289zM129.5785 20.1344h.8875v.8875h-.8875zM129.999 22.8539h1.0765v1.0765h-1.0765zM130.0796 21.571h.8875v.8875h-.8875zM127.5912 35.4475h1.7852v1.7852h-1.7852zM129.778 36.6874h2.3585v2.3586h-2.3586zM132.4841 39.247h1.2891v1.289h-1.289zM132.5064 29.246h2.1932v2.1932h-2.1932zM131.2804 31.9586h2.141v2.141h-2.141zM131.2056 34.5025h1.6435v1.6435h-1.6435zM134.067 32.1599h1.289v1.289h-1.289zM134.0531 34.6782h.9882v.9882h-.9882zM132.6731 36.7075h.675v.6749h-.675zM132.8266 37.9713h.864v.8639h-.864zM154.6635 46.1838h1.2298v1.2298h-1.2298zM154.9352 44.412h.8754v.8754h-.8754zM157.0416 46.6013h1.2655v1.2655h-1.2655zM159.3804 47.3336h1.2655v1.2655h-1.2655zM161.9907 46.6958h1.2891v1.289h-1.289zM147.9394 18.0965h1.3573v1.3573h-1.3573zM152.6653 21.5136h.823v.8229h-.823zM168.4365 24.1898h2.7191v2.719h-2.719zM168.0144 28.0497h.8947v.8947h-.8947zM171.4552 44.0504h2.1832v2.1832h-2.1832zM174.1721 44.5708h3.521v3.5209h-3.521zM178.4525 46.6067h3.4268v3.4268h-3.4268zM180.1615 50.9584h3.39v3.39h-3.39zM183.3891 54.7677h2.9543v2.9543h-2.9543zM181.0761 41.232h2.9167v2.9167h-2.9167zM180.7915 44.6592h1.532v1.5319h-1.532zM182.5531 47.7436h2.3418v2.3418h-2.3418zM183.0256 44.7198h2.4126v2.4126h-2.4126zM180.8132 55.2018h1.9978v1.9978h-1.9978zM182.3382 60.7824h3.2378v3.2378h-3.2378zM179.2064 61.6116h2.5476v2.5476h-2.5476zM186.1855 44.2126h3.0488v3.0488h-3.0488zM185.705 47.7879h3.6865v3.6866h-3.6866zM187.1132 53.912h3.4976v3.4977h-3.4976zM183.8231 64.4579h3.3323v3.3323h-3.3323zM189.3186 58.5186h3.4697v3.4697h-3.4697zM192.4221 68.71h4.6552v4.6553h-4.6552zM181.5066 64.9129h1.3836v1.3836h-1.3836zM187.1497 58.0028h1.7852v1.7852h-1.7852zM186.2026 60.9072h2.2195v2.2195h-2.2195zM188.913 62.6525h2.2862v2.2863h-2.2863zM187.7093 65.6113h3.155v3.1549h-3.155zM188.6275 69.2545h3.0036v3.0036h-3.0036zM191.6296 62.558h2.5934v2.5934h-2.5934zM184.6856 52.127h2.1395v2.1395h-2.1395zM189.664 43.1066h3.0487v3.0488h-3.0488zM190.1192 46.545h3.9398v3.9399h-3.9398zM189.8596 51.2677h2.0923V53.36h-2.0923zM187.8394 52.056h1.2891v1.2892h-1.289zM193.0191 53.0723h4.1827v4.1827h-4.1827zM192.8867 51.1594h1.2891v1.289h-1.289zM191.2338 55.0259h1.2891v1.289h-1.289zM194.6741 49.2463h2.7276v2.7276h-2.7276zM198.6826 43.8824h2.0923v2.0923h-2.0923zM201.647 44.5768h2.7727v2.7728h-2.7728zM198.0533 58.0064h2.2713v2.2713h-2.2713zM193.226 57.9058h2.4043v2.4044h-2.4044zM197.5956 66.4948h3.2797v3.2797h-3.2797zM194.559 60.6209h3.3965v3.3966h-3.3966zM182.0791 58.0167h2.141v2.141h-2.141zM197.9 49.6966h3.67v3.67h-3.67zM201.0346 59.5277h3.2331v3.233h-3.233zM194.8328 45.2268h3.2331v3.233h-3.233zM197.7507 54.496h2.1464v2.1464h-2.1464zM198.3043 70.3047h2.1275v2.1275h-2.1275zM201.6104 68.288h1.7684v1.7685h-1.7684zM200.9783 70.6407h2.619v2.6189h-2.619zM191.8677 65.626h2.619v2.6189h-2.619zM194.9388 64.8937h2.241v2.2409h-2.241zM184.6862 58.3028h2.0047v2.0047h-2.0047zM186.7262 69.127h1.2655v1.2656h-1.2655zM193.4185 43.5182h1.3363v1.3363h-1.3363zM198.3173 63.9255h2.1221v2.122h-2.122zM191.1975 56.9895h.823v.8229h-.823zM187.3796 63.7837h.9882v.9882h-.9882zM202.3117 48.2363h3.274v3.2739h-3.274zM198.855 46.4207h2.4467v2.4467h-2.4467zM198.6811 61.0988h1.6915v1.6915h-1.6915zM200.6375 53.8996h2.385v2.385h-2.385zM201.1116 56.7353h2.1177v2.1177h-2.1177zM201.3353 63.5367h3.9013v3.9013h-3.9013zM204.1187 68.8366h2.953v2.953h-2.953zM199.395 72.7539h1.171v1.171h-1.171zM190.9311 40.4733h1.9506v1.9506h-1.9506zM196.0418 58.5597h1.3908v1.3908h-1.3908zM207.1528 43.2796h2.99v2.99h-2.99zM206.954 47.2076h4.0294v4.0294h-4.0294zM209.3414 51.8098h4.0294v4.0294h-4.0294zM205.2441 52.044h3.2331v3.2332h-3.233zM203.091 52.0116h1.3908v1.3908h-1.3908zM203.8283 55.7903h2.1177v2.1177h-2.1177zM203.54 54.1378h.8946v.8947h-.8947zM207.1484 56.562h3.9013v3.9013h-3.9013zM205.7293 61.316h3.9013v3.9014h-3.9013zM210.2177 61.2688h2.4838v2.4838h-2.4838zM205.908 65.933h2.4016v2.4017h-2.4017zM204.795 58.7268h1.3907v1.3908h-1.3908zM208.9105 66.053h3.5283v3.5284h-3.5283zM207.7268 70.1729h2.953v2.953h-2.953zM210.441 64.2058h1.3907v1.3908h-1.3908zM212.1031 56.6016h2.1177v2.1177h-2.1177zM211.7104 59.2947h1.3908v1.3908h-1.3908zM211.5164 48.5804h2.76v2.7599h-2.76zM210.7145 44.471h1.7576v1.7577h-1.7576zM214.6698 47.2887h2.6225v2.6225h-2.6225zM214.0016 51.7654h3.0568v3.0568h-3.0568zM214.9656 50.3626h.8947v.8947h-.8947zM213.4292 59.7358h3.6006v3.6006h-3.6006zM213.0054 64.2262h2.953v2.953h-2.953zM211.5155 70.7642h1.2655v1.2655h-1.2655zM213.0408 67.8169h2.1832V70h-2.1832zM214.6193 55.4897h2.1177v2.1177h-2.1177zM214.8654 58.2136h.8947v.8947h-.8947zM211.6264 46.721h1.3958v1.3958h-1.3958zM212.9812 45.2126h1.0128v1.0128h-1.0128zM213.501 47.2206h.7057v.7057h-.7057zM205.0351 46.0079h1.3567v1.3567h-1.3567zM204.7794 43.1079h1.848v1.848h-1.848zM203.131 42.8334h1.173v1.173h-1.173zM216.3482 67.416h2.7177v2.7177h-2.7177zM216.5153 64.309h2.1832v2.1832h-2.1832zM226.8334 60.2139h3.4268v3.4268h-3.4268zM224.6851 55.5479h3.8617v3.8617h-3.8617zM228.5425 64.5655h3.39v3.39h-3.39zM231.7701 68.3748h2.9543v2.9543h-2.9543zM222.7711 66.4899h2.0882v2.0882h-2.0882zM222.4645 54.338h.8405v.8406h-.8405zM222.3057 56.092h1.9596v1.9596h-1.9596zM221.9673 58.5498h1.532v1.5319h-1.532zM221.814 60.578h2.1402v2.1403h-2.1403zM225.4613 67.1395h2.335v2.335h-2.335zM225.3097 64.298h2.335v2.335h-2.335zM224.385 62.663h1.2891v1.2892h-1.289zM222.07 63.2536h1.289v1.289h-1.289zM223.8416 64.6238h.8875v.8875h-.8875zM229.0543 57.2269h2.5477v2.5477h-2.5477zM230.9341 61.3508h2.3418v2.3418h-2.3418zM229.1942 68.809h1.9978v1.9978h-1.9978zM230.7192 74.3896h3.2378v3.2378h-3.2378zM217.153 70.7726h3.9464v3.9465h-3.9465zM226.8078 75.455h2.5476v2.5476h-2.5476zM224.2905 76.3647h1.7852v1.7852h-1.7852zM227.199 78.6996h1.2891v1.289h-1.289zM234.086 61.395h3.6865v3.6867h-3.6866zM235.4942 67.5193h3.4976v3.4976h-3.4976zM229.217 80.9495h2.3367v2.3367h-2.3367zM232.2041 78.065h3.3323v3.3323h-3.3323zM237.6995 72.1258h3.4697v3.4697h-3.4697zM241.6383 82.7182h3.1518V85.87h-3.1518zM229.486 78.52h1.7852v1.7852h-1.7852zM235.5306 71.61h1.7852v1.7852h-1.7852zM234.5835 74.5144h2.2195v2.2195h-2.2195zM237.294 76.2596h2.2862v2.2863h-2.2863zM236.0902 79.2184h3.155v3.1549h-3.155zM238.6038 82.7114h2.3522v2.3522h-2.3522zM240.0106 76.165h2.5934v2.5935h-2.5934zM233.0666 65.734h2.1395v2.1396h-2.1395zM238.5001 60.1523h3.9398v3.9398h-3.9398zM238.2405 64.8749h2.0923v2.0923h-2.0923zM236.2204 65.6632h1.2891v1.289h-1.289zM241.4 66.6795h4.1827v4.1827H241.4zM241.2677 64.7665h1.2891v1.289h-1.289zM239.6147 68.633h1.2891v1.289h-1.289zM243.0551 62.8535h2.7276v2.7276h-2.7276zM246.4342 71.6135h2.2713v2.2713h-2.2713zM241.607 71.5129h2.4043v2.4044h-2.4044zM245.9766 80.102h3.2797v3.2797h-3.2797zM242.94 74.228h3.3965v3.3966H242.94zM230.4601 71.6238h2.141v2.141h-2.141zM246.2808 63.3038h3.6701v3.67h-3.67zM249.4156 73.1348h3.2331v3.233h-3.233zM246.1316 68.103h2.1464v2.1465h-2.1464zM246.6853 83.9119h2.1275v2.1275h-2.1275zM249.9914 81.8952h1.7684v1.7684h-1.7684zM249.3593 84.2478h2.619v2.6189h-2.619zM240.2487 79.2332h2.619v2.6189h-2.619zM243.3197 78.5009h2.241v2.2409h-2.241zM233.0671 71.9099h2.0047v2.0047h-2.0047zM233.209 81.9945h1.7851v1.7852h-1.7852zM236.3767 82.9348h1.2655v1.2655h-1.2655zM224.5071 59.948h1.7852v1.7852h-1.7852zM222.0738 65.1215h1.0765v1.0765h-1.0765zM246.6982 77.5326h2.1221v2.122h-2.122zM239.5785 70.5967h.823v.8229h-.823zM235.7605 77.3909h.9882v.9882h-.9882zM247.062 74.7059h1.6915v1.6915h-1.6915zM249.0185 67.5067h2.385v2.385h-2.385zM249.4926 70.3424h2.1177V72.46h-2.1177zM249.7162 77.1438h3.9013v3.9013h-3.9013zM252.4997 82.4437h2.953v2.953h-2.953zM254.107 85.9358h1.6198v1.6198h-1.6198zM244.4227 72.1669h1.3908v1.3908h-1.3908zM253.3578 64.2147h4.4692v4.4692h-4.4692zM250.4697 64.2824h2.226v2.226h-2.226zM252.2093 69.3975h2.1177v2.1177h-2.1177zM251.9208 67.7449h.8947v.8947h-.8947zM254.1102 74.9232h3.9013v3.9013h-3.9013zM254.2888 79.5402h2.4017v2.4017h-2.4017zM253.1758 72.3339h1.3908v1.3908h-1.3908zM257.2914 79.6603h3.5283v3.5283h-3.5283zM256.1078 83.78h2.953v2.953h-2.953zM258.5212 77.0112h1.9587v1.9587h-1.9587zM261.3864 77.8333h2.953v2.953h-2.953zM259.8964 84.3713h1.2655v1.2655h-1.2655zM261.4217 81.424h2.1832v2.1833h-2.1832zM264.7292 81.0232h2.7177v2.7177h-2.7177zM264.8962 77.9162h2.1832v2.1832h-2.1832zM226.7961 80.641h1.7852v1.7852h-1.7852zM224.7935 78.733h1.6566v1.6566h-1.6566zM226.209 71.3159h3.2378v3.2378h-3.2378zM219.851 67.7057h2.335v2.335h-2.335zM219.4084 64.8878h2.1403v2.1403h-2.1403zM217.6025 55.3474h3.8617v3.8617h-3.8617zM217.7974 49.4603h2.9167v2.9167h-2.9167zM217.9936 52.9172h1.8505v1.8505h-1.8505zM221.1797 51.131h1.162v1.162h-1.162zM216.4356 50.3626h.8947v.8947h-.8947zM220.5972 52.9805h1.3908v1.3908h-1.3908zM217.6621 61.7213h2.1424v2.1424h-2.1424zM217.7267 59.9295h1.2891v1.289h-1.289zM219.8994 60.1303h.8875v.8875h-.8875zM220.32 62.8498h1.0764v1.0765H220.32zM220.4005 61.5669h.8875v.8875h-.8875zM217.8413 75.2072h1.7852v1.7852h-1.7852zM220.0987 76.6834h2.3586v2.3586h-2.3586zM222.805 79.2429h1.2891v1.289h-1.289zM222.8273 69.242h2.1932v2.1932h-2.1932zM221.6013 71.9546h2.141v2.141h-2.141zM221.5265 74.4984h1.6435v1.6435h-1.6435zM224.3878 72.1559h1.2891v1.289h-1.289zM224.374 74.6742h.9882v.9882h-.9882zM222.994 76.7034h.6748v.6749h-.6749zM223.1475 77.9673h.864v.8639h-.864zM244.9844 86.1797h1.2298v1.2298h-1.2298zM245.256 84.408h.8754v.8754h-.8754zM247.3625 86.5972h1.2655v1.2655h-1.2655zM249.7012 87.3296h1.2655v1.2655h-1.2655zM252.3116 86.6917h1.2891v1.289h-1.289zM242.9861 60.9898h1.3426v1.3426h-1.3426zM258.3353 68.0456h.8947v.8947h-.8947zM261.7761 84.0463h2.1832v2.1832h-2.1832zM264.493 84.5667h3.5208v3.5209h-3.5209zM178.176 33.8922h1.7683v1.7684h-1.7684zM177.4257 36.2448h2.619v2.6189h-2.619zM177.9008 29.1409h3.9013v3.9013h-3.9013zM180.6842 34.4408h2.953v2.953h-2.953zM182.2915 37.9328h1.6198v1.6198h-1.6198zM182.4734 31.5372h2.4017v2.4017h-2.4017zM185.476 32.2479h2.9376v2.9377h-2.9377zM184.2923 35.777h2.953v2.953h-2.953zM182.4234 29.7155h1.3908v1.3908h-1.3908zM187.6085 36.014h1.2655v1.2655h-1.2655zM188.9448 33.7046h1.8997v1.8997h-1.8997zM177.5905 39.2616h1.608v1.608h-1.608zM180.4962 38.0273h1.2891v1.289h-1.289zM189.4645 36.1378h2.1832v2.1832h-2.1832zM177.6958 41.1262h2.646v2.6459h-2.646zM178.3346 44.4056h1.5726v1.5726h-1.5726zM184.4016 39.492h2.0923v2.0923h-2.0923zM179.7166 39.6573h1.0647v1.0647h-1.0647zM181.4056 39.8345h.8993v.8993h-.8993zM183.0475 40.0117h.7576v.7576h-.7576zM187.055 39.5632h2.9863v2.9864h-2.9864zM184.5763 42.127h1.6198v1.6198h-1.6198zM175.6205 33.7074h1.8815v1.8815h-1.8815zM175.5851 36.2115h1.2437v1.2437h-1.2437zM174.9334 30.927h1.9105v1.9106h-1.9105zM175.3114 28.4939h1.9578v1.9578h-1.9578zM175.7366 26.4387h1.5562v1.5562h-1.5562zM177.8627 27.5017h1.2018v1.2018h-1.2018zM175.8492 48.586h1.9233v1.9234h-1.9233zM177.5028 50.8776h1.9233v1.9233h-1.9233zM178.9702 58.446h2.5476v2.5476h-2.5476zM178.2851 55.8593h1.957v1.957h-1.957zM178.1906 53.615h1.4845v1.4845h-1.4845zM185.2852 68.3239h.8166v.8166h-.8166zM190.6005 72.6707h1.1237v1.1237h-1.1237zM205.3025 72.6777h1.927v1.9269h-1.927zM213.5943 70.7642h2.7538v2.7538h-2.7538zM214.9172 74.1423h1.6907v1.6907h-1.6907zM211.728 72.5359h1.3363v1.3363h-1.3363zM207.7593 73.6699h1.3363v1.3363h-1.3363zM203.767 73.6226h.8638v.8639h-.8639zM197.954 72.9665h.8283v.8284h-.8284zM192.069 35.8955h1.981v1.981h-1.981zM190.7845 38.6045h1.4072v1.4072h-1.4072zM187.9142 38.0376h.8166v.8166h-.8166zM191.3396 34.6358h.8166v.8166h-.8166zM195.2808 41.8035h2.9664v2.9664h-2.9664zM198.73 41.5437h1.7851v1.7852H198.73zM201.1348 42.172h1.5746v1.5746h-1.5746zM197.6874 39.93h1.1946v1.1946h-1.1946zM193.2934 41.5363h1.5253v1.5253h-1.5253zM192.6083 38.2527h1.6907v1.6907h-1.6907zM194.7817 38.796h2.494v2.4939h-2.494zM193.4185 40.3527h.8166v.8166h-.8166zM194.5997 37.447h.8166v.8166h-.8166zM232.1017 58.9986h1.8626v1.8626h-1.8626zM234.5585 57.8174h3.0201v3.02h-3.02zM238.9761 58.0773h1.5082v1.5082h-1.5082zM245.136 61.722h.681v.6812h-.681zM254.9818 62.1327h1.4228v1.4228h-1.4228zM252.8793 62.6288h.9976v.9976h-.9976zM258.666 65.447h.8947v.8947h-.8947zM255.3497 69.364h1.1823v1.1823h-1.1823zM258.4867 75.3575h.9947v.9947h-.9947zM263.5265 74.7757h2.4838v2.4838h-2.4838zM260.7251 75.3575h2.0972v2.0972h-2.0972zM264.629 73.0719h1.0807v1.0807h-1.0807zM221.4473 86.2942h3.4268v3.4268h-3.4268zM223.1563 90.6459h3.39v3.39h-3.39zM226.384 94.4552h2.9542v2.9543h-2.9543zM219.9097 93.4088h2.8311v2.831h-2.831zM219.9236 90.3784h2.335v2.335h-2.335zM223.6681 83.3072h2.5477v2.5477h-2.5477zM225.548 87.431h2.3417v2.3419h-2.3418zM223.7371 94.464h1.9978v1.9979h-1.9978zM228.6997 87.4754h3.6866v3.6866h-3.6866zM230.108 93.5996h3.4976v3.4976h-3.4976zM227.6804 91.8145h2.1395v2.1395h-2.1395zM233.114 86.2326h3.9397v3.9398h-3.9398zM232.8543 90.9552h2.0923v2.0923h-2.0923zM230.8342 91.7436h1.2891v1.289h-1.289zM236.014 92.7598h3.2472v3.2473h-3.2473zM235.8815 90.8469h1.2891v1.289h-1.289zM234.2285 93.532h1.2891v1.2892h-1.289zM237.669 88.9338h2.7275v2.7276h-2.7276zM234.3104 95.4722h.823v.8229h-.823zM237.6 87.07h1.3426v1.3427H237.6zM226.7155 85.079h1.8626v1.8626h-1.8626zM229.1724 83.8978h3.0201v3.02h-3.02zM233.59 84.1577h1.5081v1.5082H233.59zM239.7497 87.8025h.6811v.681h-.681zM243.6534 91.1134h3.4268v3.4268h-3.4268zM245.8742 88.1264h2.5477v2.5477h-2.5477zM247.754 92.2503h2.3418v2.3418h-2.3418zM250.9058 92.2946h3.6866v3.6866h-3.6866zM255.32 91.0518h3.9398v3.9398H255.32zM257.4194 95.5325h1.4896v1.4896h-1.4896zM259.875 93.753h2.7276v2.7276h-2.7276zM259.8061 91.8893h1.3426v1.3426h-1.3426zM248.9217 89.8982h1.8626v1.8626h-1.8626zM251.3785 88.717h3.0201v3.02h-3.02zM255.7961 88.9768h1.5082v1.5082h-1.5082zM261.722 92.5548h.681v.681h-.681zM270.4978 73.259h3.39v3.39h-3.39zM273.7254 77.0683h2.9543v2.9543h-2.9543zM267.653 75.9983h2.335v2.335h-2.335zM267.2651 72.9915h2.335v2.335h-2.335zM271.1495 77.5024h1.9978v1.9978h-1.9978zM277.4495 76.4466h3.2638v3.2638h-3.2638zM279.655 80.8192h3.4696v3.4697h-3.4697zM277.486 80.3034h1.7852v1.7852h-1.7852zM274.5208 74.5612h2.006v2.0059h-2.006zM281.4364 77.861h1.0218v1.0218h-1.0218zM283.629 80.8077h2.037v2.0369h-2.037zM272.4154 80.3173h2.141v2.141h-2.141zM275.0225 80.6033h2.0047v2.0047h-2.0047zM281.5338 79.29h.823v.823h-.823zM268.1643 80.0094h3.2378v3.2378h-3.2378zM268.7888 87.1447h3.4268v3.4268h-3.4268zM270.097 91.396h1.4522v1.4524h-1.4523zM267.653 94.2356h2.0676v2.0677h-2.0677zM267.2651 91.2288h2.335v2.335h-2.335zM271.0096 84.1577h2.5477v2.5477h-2.5477zM272.8894 88.2816h2.3418v2.3418h-2.3418zM276.0412 88.3258h3.6866v3.6866h-3.6866zM275.022 92.6649h2.1395v2.1395h-2.1395zM280.4555 87.083h3.9398v3.9399h-3.9398zM280.2961 91.7054h2.8273v2.8273h-2.8273zM277.8082 92.4604h1.2891v1.289h-1.289zM272.3986 91.2296h2.1243v2.1243h-2.1243zM285.0104 89.7842h2.7276v2.7276h-2.7276zM284.9415 87.9206h1.3426v1.3426h-1.3426zM274.0571 85.9294h1.8626v1.8626h-1.8626zM276.514 84.7482h3.02v3.02h-3.02zM280.9315 85.008h1.5082v1.5083h-1.5082zM287.0912 88.6529h.6811v.681h-.681zM205.1227 93.8882h2.5763v2.5763h-2.5763zM208.398 92.7492h3.4976v3.4976h-3.4976zM208.4226 96.6509h1.4308v1.4308h-1.4308zM206.6555 92.098h1.4308v1.4308h-1.4308zM211.2486 89.7764h2.4598v2.4598h-2.4598zM208.7107 90.1973h2.1243v2.1243h-2.1243zM214.611 91.6732h4.608v4.6079h-4.608zM214.2424 89.902h1.2891v1.289h-1.289zM212.5894 93.7684h1.2891v1.289h-1.289zM216.0298 87.9889h2.7276v2.7276h-2.7276zM202.7261 96.7829h2.9678v2.9678h-2.9678zM206.0891 96.8327h2.0047v2.0047h-2.0047zM212.2692 95.6235h.823v.8229h-.823zM216.462 86.2588h1.3426v1.3426h-1.3426zM218.3704 86.8693h.6811v.681h-.681zM200.8831 98.4724h1.4843v1.4843h-1.4843zM201.332 97.173h.8936v.8938h-.8937zM203.4191 95.3816h1.053v1.0529h-1.053zM208.3976 98.4215h1.2638v1.2638h-1.2638zM210.2034 97.7135h1.2891v1.289h-1.289zM210.547 96.5644h.8228v.8229h-.8229zM211.9141 96.9633h.9584v.9584h-.9584zM206.2881 99.0566h.7104v.7104h-.7104zM207.4156 99.0399h.6436v.6436h-.6436zM213.925 87.7638h1.6065v1.6065h-1.6065zM210.047 88.794h.9383v.9384h-.9383zM212.1852 88.1427h1.3058v1.3058h-1.3058zM219.339 88.0859h1.6615v1.6615h-1.6615zM221.7287 96.8814h1.9334v1.9334h-1.9334zM219.1065 96.716h1.768v1.768h-1.768zM217.183 96.7574h.8228v.8229h-.8229zM215.6474 96.6393h.823v.8229h-.823zM213.663 96.4976h.823v.8229h-.823zM218.825 79.6088h3.4268v3.4268h-3.4268zM217.2743 77.5222h1.7852v1.7852h-1.7852zM220.927 83.542h2.1693v2.1695h-2.1694zM219.037 83.542h1.3425v1.3427h-1.3426zM217.5436 80.0185h.8701v.87h-.87zM217.2838 84.4125h1.3426v1.3426h-1.3426zM254.9955 73.8374h.6272v.6272h-.6272zM258.1033 87.4928h2.7276v2.7276h-2.7276zM263.4422 93.8239h3.6016v3.6016h-3.6016zM248.6382 95.1464h1.7616v1.7616h-1.7616zM241.0551 86.6382h3.3981v3.398h-3.398zM240.8503 90.6682h2.2928v2.2928h-2.2928zM224.7525 97.59h1.0357v1.0358h-1.0357zM239.74 93.5739h2.2928v2.2928H239.74zM242.5984 94.8259h1.1825v1.1825h-1.1825zM244.4293 94.9204h.9227v.9227h-.9227zM246.461 95.062h1.4187v1.4189h-1.4188zM219.598 86.1984h1.2772v1.2773h-1.2773zM219.2725 85.2156h.6811v.681h-.681zM222.8558 81.0382h1.6566v1.6566h-1.6566zM227.2658 83.1096h1.2891v1.289h-1.289zM225.1186 81.3749h.864v.8639h-.864zM226.7127 70.0439h.9882v.9882h-.9882zM239.016 85.6408h1.2655v1.2655h-1.2655zM237.077 85.0963h.6811v.681h-.681zM244.02 81.301h.8753v.8754h-.8754zM261.4186 87.0193h2.335v2.335h-2.335zM266.3208 88.7489h1.7435v1.7435h-1.7435zM262.9486 89.744h2.7276v2.7276h-2.7276zM261.2208 90.4167h.9818v.9818h-.9818zM260.7603 96.9356h2.0575v2.0575h-2.0575zM274.9685 97.9394h1.2891v1.289h-1.289zM274.1155 95.347h2.0923v2.0923h-2.0923zM276.639 95.2668h1.6565v1.6566h-1.6566zM276.7057 97.4049h.8214v.8214h-.8214zM278.5766 94.1977h1.0218v1.0218h-1.0218zM268.7717 84.7133h1.3426v1.3426h-1.3426zM274.2832 83.3043h1.5082v1.5082h-1.5082zM277.4245 82.8425h1.3426v1.3426h-1.3426zM270.191 93.7299h.8214v.8214h-.8214zM263.643 98.0062h1.0217v1.0218h-1.0218zM266.2822 97.9394h1.0218v1.0218h-1.0218zM259.2998 97.3715h1.0218v1.0218h-1.0218zM288.3065 86.6153h3.9398v3.9398h-3.9398zM283.6051 91.6958h.8748v.8748h-.8748zM292.7512 89.6057h3.4697v3.4697h-3.4697zM283.5956 83.5807h2.8722v2.8722h-2.8722zM287.0244 84.1093h2.0843v2.0843h-2.0843zM286.214 82.371h.788v.788h-.788zM282.9398 79.498h.8548v.8548h-.8548zM284.0222 92.878h1.3893v1.3893h-1.3893zM289.7017 91.1408h2.5252v2.5252h-2.5252zM288.1153 91.2614h1.1421v1.142h-1.142zM286.3781 92.9319h1.1421v1.142h-1.142zM288.3942 92.996h.6811v.681h-.681zM286.5451 86.6845h1.3426v1.3426h-1.3426zM289.6187 85.014h1.0753v1.0753h-1.0753zM295.7106 86.7152h2.1511v2.151h-2.151zM296.8131 91.5595h1.483v1.4829h-1.483zM298.35 87.116h.8815v.8817h-.8816zM297.448 89.2543h1.8837v1.8838h-1.8838zM292.9711 86.5482h2.1511v2.151h-2.151zM50.1528 48.1354h1.2804v1.2804h-1.2804zM51.2063 49.6326h2.0911v2.091h-2.091zM51.9551 40.8936h1.1617v1.1617h-1.1617zM53.492 41.5952h2.0637v2.0638H53.492zM53.1746 44.1176h1.7631v1.763h-1.763zM54.6812 50.3593h1.8253v1.8253h-1.8253zM53.9764 46.5397h.8945v.8945h-.8945zM53.4016 40.1568h1.075v1.075h-1.075zM54.8951 39.6575h1.6295v1.6295h-1.6295zM56.432 37.7365h1.6294v1.6295H56.432zM56.1145 44.9135h3.2331v-3.2331h-3.233zM55.7983 47.4204h2.594v2.5939h-2.594zM56.9532 50.4499h1.6253v1.6253h-1.6253zM59.0531 50.2614h1.6295v1.6295h-1.6295zM59.143 46.9263h2.8321v2.8322H59.143zM62.5156 48.236h2.4394v2.4394h-2.4394zM58.5536 38.7639h2.4921v2.492h-2.492zM57.052 39.9926h1.0743v1.0743H57.052zM59.8707 43.145h3.1386v3.1387h-3.1386zM61.8905 40.7946h2.0165v2.0165h-2.0165zM55.6064 45.5239h1.367v1.3669h-1.367zM53.5143 51.0844h.811v.811h-.811zM57.7798 45.6184h.9417v.9417h-.9417zM62.8045 46.5602h1.3203v1.3203h-1.3203zM60.1467 41.6226h1.0743v1.0743h-1.0743zM64.8194 46.437h1.3421v1.342h-1.342zM63.55 43.543h2.5965v2.5966H63.55zM49.4484 47.3645h.6248v.6248h-.6248zM56.491 52.3896h1.059v1.059h-1.059zM61.1627 50.216h1.0741v1.0742h-1.074zM65.327 48.1387h1.5707v1.5708H65.327zM49.6256 48.215h.3532v.3532h-.3532zM50.234 47.6007h.3531v.3532h-.3532zM51.6868 48.6047h.7784v.7784h-.7784zM50.4997 49.6914h.4358v.4358h-.4358zM54.1825 48.7123h1.2787v1.2787h-1.2787zM52.7141 48.9555h.4861v.486h-.486zM53.658 50.2418h.6196v.6197h-.6197zM53.424 48.9305h.5487v.5487h-.5487zM53.5368 49.6237h.3984v.3984h-.3984zM51.9847 42.4292h1.0141v1.014h-1.014zM64.2417 42.3282h.7637v.7637h-.7637zM61.5013 39.0917h1.2362v1.2362h-1.2362zM63.0743 39.5676h.7601v.76h-.76z" style="marker:none"/>
  </g>
</svg>
